<?xml version="1.0" encoding="UTF-8" standalone="no"?>
<!DOCTYPE svg PUBLIC "-//W3C//DTD SVG 1.1//EN"
 "http://www.w3.org/Graphics/SVG/1.1/DTD/svg11.dtd">
<!-- Generated by graphviz version 2.38.0 (20140413.2041)
 -->
<!-- Title: controllers_diagram Pages: 1 -->
<svg width="987pt" height="986pt"
 viewBox="0.00 0.00 987.00 986.50" xmlns="http://www.w3.org/2000/svg" xmlns:xlink="http://www.w3.org/1999/xlink">
<g id="graph0" class="graph" transform="scale(1 1) rotate(0) translate(436.5 550.5)">
<title>controllers_diagram</title>
<polygon fill="none" stroke="none" points="-436.5,436 -436.5,-550.5 550.5,-550.5 550.5,436 -436.5,436"/>
<!-- _diagram_info -->
<g id="node1" class="node"><title>_diagram_info</title>
<text text-anchor="start" x="260" y="296.4" font-family="Times,serif" font-size="13.00">Controllers diagram</text>
<text text-anchor="start" x="260" y="310.4" font-family="Times,serif" font-size="13.00">Date: Aug 12 2017 &#45; 22:58</text>
<text text-anchor="start" x="260" y="324.4" font-family="Times,serif" font-size="13.00">Migration version: 20170805110752</text>
<text text-anchor="start" x="260" y="338.4" font-family="Times,serif" font-size="13.00">Generated by RailRoady 1.5.3</text>
<text text-anchor="start" x="260" y="352.4" font-family="Times,serif" font-size="13.00">http://railroady.prestonlee.com</text>
</g>
<!-- PhotosController -->
<g id="node2" class="node"><title>PhotosController</title>
<path fill="none" stroke="black" d="M372.5,-163C372.5,-163 457.5,-163 457.5,-163 463.5,-163 469.5,-169 469.5,-175 469.5,-175 469.5,-349 469.5,-349 469.5,-355 463.5,-361 457.5,-361 457.5,-361 372.5,-361 372.5,-361 366.5,-361 360.5,-355 360.5,-349 360.5,-349 360.5,-175 360.5,-175 360.5,-169 366.5,-163 372.5,-163"/>
<text text-anchor="middle" x="415" y="-345.8" font-family="Times,serif" font-size="14.00">PhotosController</text>
<polyline fill="none" stroke="black" points="360.5,-338 469.5,-338 "/>
<text text-anchor="start" x="368.5" y="-322.8" font-family="Times,serif" font-size="14.00">create</text>
<text text-anchor="start" x="368.5" y="-307.8" font-family="Times,serif" font-size="14.00">edit</text>
<text text-anchor="start" x="368.5" y="-292.8" font-family="Times,serif" font-size="14.00">index</text>
<text text-anchor="start" x="368.5" y="-277.8" font-family="Times,serif" font-size="14.00">new</text>
<text text-anchor="start" x="368.5" y="-262.8" font-family="Times,serif" font-size="14.00">update</text>
<polyline fill="none" stroke="black" points="360.5,-255 469.5,-255 "/>
<polyline fill="none" stroke="black" points="360.5,-231 469.5,-231 "/>
<text text-anchor="start" x="368.5" y="-215.8" font-family="Times,serif" font-size="14.00">_layout</text>
<text text-anchor="start" x="368.5" y="-200.8" font-family="Times,serif" font-size="14.00">find_party</text>
<text text-anchor="start" x="368.5" y="-185.8" font-family="Times,serif" font-size="14.00">initialize_party</text>
<text text-anchor="start" x="368.5" y="-170.8" font-family="Times,serif" font-size="14.00">photo_params</text>
</g>
<!-- AlbumsController -->
<g id="node3" class="node"><title>AlbumsController</title>
<path fill="none" stroke="black" d="M-276,-288.5C-276,-288.5 -184,-288.5 -184,-288.5 -178,-288.5 -172,-294.5 -172,-300.5 -172,-300.5 -172,-459.5 -172,-459.5 -172,-465.5 -178,-471.5 -184,-471.5 -184,-471.5 -276,-471.5 -276,-471.5 -282,-471.5 -288,-465.5 -288,-459.5 -288,-459.5 -288,-300.5 -288,-300.5 -288,-294.5 -282,-288.5 -276,-288.5"/>
<text text-anchor="middle" x="-230" y="-456.3" font-family="Times,serif" font-size="14.00">AlbumsController</text>
<polyline fill="none" stroke="black" points="-288,-448.5 -172,-448.5 "/>
<text text-anchor="start" x="-280" y="-433.3" font-family="Times,serif" font-size="14.00">create</text>
<text text-anchor="start" x="-280" y="-418.3" font-family="Times,serif" font-size="14.00">downvote</text>
<text text-anchor="start" x="-280" y="-403.3" font-family="Times,serif" font-size="14.00">index</text>
<text text-anchor="start" x="-280" y="-388.3" font-family="Times,serif" font-size="14.00">upvote</text>
<polyline fill="none" stroke="black" points="-288,-380.5 -172,-380.5 "/>
<polyline fill="none" stroke="black" points="-288,-356.5 -172,-356.5 "/>
<text text-anchor="start" x="-280" y="-341.3" font-family="Times,serif" font-size="14.00">_layout</text>
<text text-anchor="start" x="-280" y="-326.3" font-family="Times,serif" font-size="14.00">album_params</text>
<text text-anchor="start" x="-280" y="-311.3" font-family="Times,serif" font-size="14.00">find_party</text>
<text text-anchor="start" x="-280" y="-296.3" font-family="Times,serif" font-size="14.00">find_visitor</text>
</g>
<!-- TermAndConditionsController -->
<g id="node4" class="node"><title>TermAndConditionsController</title>
<path fill="none" stroke="black" d="M-132.5,269.5C-132.5,269.5 28.5,269.5 28.5,269.5 34.5,269.5 40.5,263.5 40.5,257.5 40.5,257.5 40.5,188.5 40.5,188.5 40.5,182.5 34.5,176.5 28.5,176.5 28.5,176.5 -132.5,176.5 -132.5,176.5 -138.5,176.5 -144.5,182.5 -144.5,188.5 -144.5,188.5 -144.5,257.5 -144.5,257.5 -144.5,263.5 -138.5,269.5 -132.5,269.5"/>
<text text-anchor="middle" x="-52" y="191.7" font-family="Times,serif" font-size="14.00">TermAndConditionsController</text>
<polyline fill="none" stroke="black" points="-144.5,199.5 40.5,199.5 "/>
<text text-anchor="start" x="-136.5" y="214.7" font-family="Times,serif" font-size="14.00">show</text>
<polyline fill="none" stroke="black" points="-144.5,222.5 40.5,222.5 "/>
<polyline fill="none" stroke="black" points="-144.5,246.5 40.5,246.5 "/>
<text text-anchor="start" x="-136.5" y="261.7" font-family="Times,serif" font-size="14.00">_layout</text>
</g>
<!-- MessagesController -->
<g id="node5" class="node"><title>MessagesController</title>
<path fill="none" stroke="black" d="M407.5,-396.5C407.5,-396.5 508.5,-396.5 508.5,-396.5 514.5,-396.5 520.5,-402.5 520.5,-408.5 520.5,-408.5 520.5,-507.5 520.5,-507.5 520.5,-513.5 514.5,-519.5 508.5,-519.5 508.5,-519.5 407.5,-519.5 407.5,-519.5 401.5,-519.5 395.5,-513.5 395.5,-507.5 395.5,-507.5 395.5,-408.5 395.5,-408.5 395.5,-402.5 401.5,-396.5 407.5,-396.5"/>
<text text-anchor="middle" x="458" y="-504.3" font-family="Times,serif" font-size="14.00">MessagesController</text>
<polyline fill="none" stroke="black" points="395.5,-496.5 520.5,-496.5 "/>
<text text-anchor="start" x="403.5" y="-481.3" font-family="Times,serif" font-size="14.00">create</text>
<text text-anchor="start" x="403.5" y="-466.3" font-family="Times,serif" font-size="14.00">new</text>
<polyline fill="none" stroke="black" points="395.5,-458.5 520.5,-458.5 "/>
<polyline fill="none" stroke="black" points="395.5,-434.5 520.5,-434.5 "/>
<text text-anchor="start" x="403.5" y="-419.3" font-family="Times,serif" font-size="14.00">_layout</text>
<text text-anchor="start" x="403.5" y="-404.3" font-family="Times,serif" font-size="14.00">message_params</text>
</g>
<!-- ApplicationController -->
<g id="node6" class="node"><title>ApplicationController</title>
<path fill="none" stroke="black" d="M-132,-145C-132,-145 38,-145 38,-145 44,-145 50,-151 50,-157 50,-157 50,-331 50,-331 50,-337 44,-343 38,-343 38,-343 -132,-343 -132,-343 -138,-343 -144,-337 -144,-331 -144,-331 -144,-157 -144,-157 -144,-151 -138,-145 -132,-145"/>
<text text-anchor="middle" x="-47" y="-327.8" font-family="Times,serif" font-size="14.00">ApplicationController</text>
<polyline fill="none" stroke="black" points="-144,-320 50,-320 "/>
<polyline fill="none" stroke="black" points="-144,-296 50,-296 "/>
<text text-anchor="start" x="-136" y="-280.8" font-family="Times,serif" font-size="14.00">after_sign_in_path_for</text>
<text text-anchor="start" x="-136" y="-265.8" font-family="Times,serif" font-size="14.00">after_sign_up_path_for</text>
<text text-anchor="start" x="-136" y="-250.8" font-family="Times,serif" font-size="14.00">bad_slug?</text>
<text text-anchor="start" x="-136" y="-235.8" font-family="Times,serif" font-size="14.00">configure_permitted_parameters</text>
<text text-anchor="start" x="-136" y="-220.8" font-family="Times,serif" font-size="14.00">create_friend</text>
<text text-anchor="start" x="-136" y="-205.8" font-family="Times,serif" font-size="14.00">redirect_to_good_slug</text>
<text text-anchor="start" x="-136" y="-190.8" font-family="Times,serif" font-size="14.00">redirect_to_goodd_slug</text>
<text text-anchor="start" x="-136" y="-175.8" font-family="Times,serif" font-size="14.00">redirect_url</text>
<polyline fill="none" stroke="black" points="-144,-168 50,-168 "/>
<text text-anchor="start" x="-136" y="-152.8" font-family="Times,serif" font-size="14.00">_layout</text>
</g>
<!-- ProfilesController -->
<g id="node7" class="node"><title>ProfilesController</title>
<path fill="none" stroke="black" d="M84,-378C84,-378 174,-378 174,-378 180,-378 186,-384 186,-390 186,-390 186,-534 186,-534 186,-540 180,-546 174,-546 174,-546 84,-546 84,-546 78,-546 72,-540 72,-534 72,-534 72,-390 72,-390 72,-384 78,-378 84,-378"/>
<text text-anchor="middle" x="129" y="-530.8" font-family="Times,serif" font-size="14.00">ProfilesController</text>
<polyline fill="none" stroke="black" points="72,-523 186,-523 "/>
<text text-anchor="start" x="80" y="-507.8" font-family="Times,serif" font-size="14.00">edit</text>
<text text-anchor="start" x="80" y="-492.8" font-family="Times,serif" font-size="14.00">edit_picture</text>
<text text-anchor="start" x="80" y="-477.8" font-family="Times,serif" font-size="14.00">index</text>
<text text-anchor="start" x="80" y="-462.8" font-family="Times,serif" font-size="14.00">show</text>
<text text-anchor="start" x="80" y="-447.8" font-family="Times,serif" font-size="14.00">update</text>
<polyline fill="none" stroke="black" points="72,-440 186,-440 "/>
<polyline fill="none" stroke="black" points="72,-416 186,-416 "/>
<text text-anchor="start" x="80" y="-400.8" font-family="Times,serif" font-size="14.00">_layout</text>
<text text-anchor="start" x="80" y="-385.8" font-family="Times,serif" font-size="14.00">profile_params</text>
</g>
<!-- HowItWorksController -->
<g id="node8" class="node"><title>HowItWorksController</title>
<path fill="none" stroke="black" d="M-311.5,-162.5C-311.5,-162.5 -192.5,-162.5 -192.5,-162.5 -186.5,-162.5 -180.5,-168.5 -180.5,-174.5 -180.5,-174.5 -180.5,-243.5 -180.5,-243.5 -180.5,-249.5 -186.5,-255.5 -192.5,-255.5 -192.5,-255.5 -311.5,-255.5 -311.5,-255.5 -317.5,-255.5 -323.5,-249.5 -323.5,-243.5 -323.5,-243.5 -323.5,-174.5 -323.5,-174.5 -323.5,-168.5 -317.5,-162.5 -311.5,-162.5"/>
<text text-anchor="middle" x="-252" y="-240.3" font-family="Times,serif" font-size="14.00">HowItWorksController</text>
<polyline fill="none" stroke="black" points="-323.5,-232.5 -180.5,-232.5 "/>
<text text-anchor="start" x="-315.5" y="-217.3" font-family="Times,serif" font-size="14.00">show</text>
<polyline fill="none" stroke="black" points="-323.5,-209.5 -180.5,-209.5 "/>
<polyline fill="none" stroke="black" points="-323.5,-185.5 -180.5,-185.5 "/>
<text text-anchor="start" x="-315.5" y="-170.3" font-family="Times,serif" font-size="14.00">_layout</text>
</g>
<!-- InvitesController -->
<g id="node9" class="node"><title>InvitesController</title>
<path fill="none" stroke="black" d="M-77.5,143C-77.5,143 51.5,143 51.5,143 57.5,143 63.5,137 63.5,131 63.5,131 63.5,-103 63.5,-103 63.5,-109 57.5,-115 51.5,-115 51.5,-115 -77.5,-115 -77.5,-115 -83.5,-115 -89.5,-109 -89.5,-103 -89.5,-103 -89.5,131 -89.5,131 -89.5,137 -83.5,143 -77.5,143"/>
<text text-anchor="middle" x="-13" y="-99.8" font-family="Times,serif" font-size="14.00">InvitesController</text>
<polyline fill="none" stroke="black" points="-89.5,-92 63.5,-92 "/>
<text text-anchor="start" x="-81.5" y="-76.8" font-family="Times,serif" font-size="14.00">create</text>
<text text-anchor="start" x="-81.5" y="-61.8" font-family="Times,serif" font-size="14.00">password</text>
<text text-anchor="start" x="-81.5" y="-46.8" font-family="Times,serif" font-size="14.00">password=</text>
<text text-anchor="start" x="-81.5" y="-31.8" font-family="Times,serif" font-size="14.00">password_confirmation</text>
<text text-anchor="start" x="-81.5" y="-16.8" font-family="Times,serif" font-size="14.00">password_confirmation=</text>
<text text-anchor="start" x="-81.5" y="-1.8" font-family="Times,serif" font-size="14.00">placeholder</text>
<text text-anchor="start" x="-81.5" y="13.2" font-family="Times,serif" font-size="14.00">placeholder=</text>
<polyline fill="none" stroke="black" points="-89.5,21 63.5,21 "/>
<polyline fill="none" stroke="black" points="-89.5,45 63.5,45 "/>
<text text-anchor="start" x="-81.5" y="60.2" font-family="Times,serif" font-size="14.00">_layout</text>
<text text-anchor="start" x="-81.5" y="75.2" font-family="Times,serif" font-size="14.00">create_notification</text>
<text text-anchor="start" x="-81.5" y="90.2" font-family="Times,serif" font-size="14.00">create_visitor</text>
<text text-anchor="start" x="-81.5" y="105.2" font-family="Times,serif" font-size="14.00">find_group</text>
<text text-anchor="start" x="-81.5" y="120.2" font-family="Times,serif" font-size="14.00">find_party</text>
<text text-anchor="start" x="-81.5" y="135.2" font-family="Times,serif" font-size="14.00">invite_params</text>
</g>
<!-- AboutsController -->
<g id="node10" class="node"><title>AboutsController</title>
<path fill="none" stroke="black" d="M-384.5,125.5C-384.5,125.5 -297.5,125.5 -297.5,125.5 -291.5,125.5 -285.5,119.5 -285.5,113.5 -285.5,113.5 -285.5,44.5 -285.5,44.5 -285.5,38.5 -291.5,32.5 -297.5,32.5 -297.5,32.5 -384.5,32.5 -384.5,32.5 -390.5,32.5 -396.5,38.5 -396.5,44.5 -396.5,44.5 -396.5,113.5 -396.5,113.5 -396.5,119.5 -390.5,125.5 -384.5,125.5"/>
<text text-anchor="middle" x="-341" y="47.7" font-family="Times,serif" font-size="14.00">AboutsController</text>
<polyline fill="none" stroke="black" points="-396.5,55.5 -285.5,55.5 "/>
<text text-anchor="start" x="-388.5" y="70.7" font-family="Times,serif" font-size="14.00">show</text>
<polyline fill="none" stroke="black" points="-396.5,78.5 -285.5,78.5 "/>
<polyline fill="none" stroke="black" points="-396.5,102.5 -285.5,102.5 "/>
<text text-anchor="start" x="-388.5" y="117.7" font-family="Times,serif" font-size="14.00">_layout</text>
</g>
<!-- RequestsController -->
<g id="node11" class="node"><title>RequestsController</title>
<path fill="none" stroke="black" d="M101.5,305.5C101.5,305.5 198.5,305.5 198.5,305.5 204.5,305.5 210.5,299.5 210.5,293.5 210.5,293.5 210.5,134.5 210.5,134.5 210.5,128.5 204.5,122.5 198.5,122.5 198.5,122.5 101.5,122.5 101.5,122.5 95.5,122.5 89.5,128.5 89.5,134.5 89.5,134.5 89.5,293.5 89.5,293.5 89.5,299.5 95.5,305.5 101.5,305.5"/>
<text text-anchor="middle" x="150" y="137.7" font-family="Times,serif" font-size="14.00">RequestsController</text>
<polyline fill="none" stroke="black" points="89.5,145.5 210.5,145.5 "/>
<text text-anchor="start" x="97.5" y="160.7" font-family="Times,serif" font-size="14.00">create</text>
<text text-anchor="start" x="97.5" y="175.7" font-family="Times,serif" font-size="14.00">index</text>
<polyline fill="none" stroke="black" points="89.5,183.5 210.5,183.5 "/>
<polyline fill="none" stroke="black" points="89.5,207.5 210.5,207.5 "/>
<text text-anchor="start" x="97.5" y="222.7" font-family="Times,serif" font-size="14.00">_layout</text>
<text text-anchor="start" x="97.5" y="237.7" font-family="Times,serif" font-size="14.00">create_notification</text>
<text text-anchor="start" x="97.5" y="252.7" font-family="Times,serif" font-size="14.00">create_visitor</text>
<text text-anchor="start" x="97.5" y="267.7" font-family="Times,serif" font-size="14.00">find_group</text>
<text text-anchor="start" x="97.5" y="282.7" font-family="Times,serif" font-size="14.00">find_party</text>
<text text-anchor="start" x="97.5" y="297.7" font-family="Times,serif" font-size="14.00">request_params</text>
</g>
<!-- CommentsController -->
<g id="node12" class="node"><title>CommentsController</title>
<path fill="none" stroke="black" d="M102,89.5C102,89.5 210,89.5 210,89.5 216,89.5 222,83.5 222,77.5 222,77.5 222,-171.5 222,-171.5 222,-177.5 216,-183.5 210,-183.5 210,-183.5 102,-183.5 102,-183.5 96,-183.5 90,-177.5 90,-171.5 90,-171.5 90,77.5 90,77.5 90,83.5 96,89.5 102,89.5"/>
<text text-anchor="middle" x="156" y="-168.3" font-family="Times,serif" font-size="14.00">CommentsController</text>
<polyline fill="none" stroke="black" points="90,-160.5 222,-160.5 "/>
<text text-anchor="start" x="98" y="-145.3" font-family="Times,serif" font-size="14.00">create</text>
<text text-anchor="start" x="98" y="-130.3" font-family="Times,serif" font-size="14.00">destroy</text>
<text text-anchor="start" x="98" y="-115.3" font-family="Times,serif" font-size="14.00">edit</text>
<text text-anchor="start" x="98" y="-100.3" font-family="Times,serif" font-size="14.00">reply</text>
<text text-anchor="start" x="98" y="-85.3" font-family="Times,serif" font-size="14.00">update</text>
<polyline fill="none" stroke="black" points="90,-77.5 222,-77.5 "/>
<polyline fill="none" stroke="black" points="90,-53.5 222,-53.5 "/>
<text text-anchor="start" x="98" y="-38.3" font-family="Times,serif" font-size="14.00">_layout</text>
<text text-anchor="start" x="98" y="-23.3" font-family="Times,serif" font-size="14.00">all_comments</text>
<text text-anchor="start" x="98" y="-8.3" font-family="Times,serif" font-size="14.00">comment_params</text>
<text text-anchor="start" x="98" y="6.7" font-family="Times,serif" font-size="14.00">find_group</text>
<text text-anchor="start" x="98" y="21.7" font-family="Times,serif" font-size="14.00">find_parent</text>
<text text-anchor="start" x="98" y="36.7" font-family="Times,serif" font-size="14.00">find_visitor</text>
<text text-anchor="start" x="98" y="51.7" font-family="Times,serif" font-size="14.00">set_comment</text>
<text text-anchor="start" x="98" y="66.7" font-family="Times,serif" font-size="14.00">set_party</text>
<text text-anchor="start" x="98" y="81.7" font-family="Times,serif" font-size="14.00">set_visitor</text>
</g>
<!-- CataloguesController -->
<g id="node13" class="node"><title>CataloguesController</title>
<path fill="none" stroke="black" d="M-240,125C-240,125 -132,125 -132,125 -126,125 -120,119 -120,113 -120,113 -120,-91 -120,-91 -120,-97 -126,-103 -132,-103 -132,-103 -240,-103 -240,-103 -246,-103 -252,-97 -252,-91 -252,-91 -252,113 -252,113 -252,119 -246,125 -240,125"/>
<text text-anchor="middle" x="-186" y="-87.8" font-family="Times,serif" font-size="14.00">CataloguesController</text>
<polyline fill="none" stroke="black" points="-252,-80 -120,-80 "/>
<text text-anchor="start" x="-244" y="-64.8" font-family="Times,serif" font-size="14.00">create</text>
<text text-anchor="start" x="-244" y="-49.8" font-family="Times,serif" font-size="14.00">delete_all</text>
<text text-anchor="start" x="-244" y="-34.8" font-family="Times,serif" font-size="14.00">delete_catalogue</text>
<text text-anchor="start" x="-244" y="-19.8" font-family="Times,serif" font-size="14.00">index</text>
<text text-anchor="start" x="-244" y="-4.8" font-family="Times,serif" font-size="14.00">register</text>
<polyline fill="none" stroke="black" points="-252,3 -120,3 "/>
<polyline fill="none" stroke="black" points="-252,27 -120,27 "/>
<text text-anchor="start" x="-244" y="42.2" font-family="Times,serif" font-size="14.00">_layout</text>
<text text-anchor="start" x="-244" y="57.2" font-family="Times,serif" font-size="14.00">catalogue_params</text>
<text text-anchor="start" x="-244" y="72.2" font-family="Times,serif" font-size="14.00">find_party</text>
<text text-anchor="start" x="-244" y="87.2" font-family="Times,serif" font-size="14.00">find_title</text>
<text text-anchor="start" x="-244" y="102.2" font-family="Times,serif" font-size="14.00">initialize_party</text>
<text text-anchor="start" x="-244" y="117.2" font-family="Times,serif" font-size="14.00">resolve_layout</text>
</g>
<!-- PartiesController -->
<g id="node14" class="node"><title>PartiesController</title>
<path fill="none" stroke="black" d="M228.5,-217C228.5,-217 313.5,-217 313.5,-217 319.5,-217 325.5,-223 325.5,-229 325.5,-229 325.5,-493 325.5,-493 325.5,-499 319.5,-505 313.5,-505 313.5,-505 228.5,-505 228.5,-505 222.5,-505 216.5,-499 216.5,-493 216.5,-493 216.5,-229 216.5,-229 216.5,-223 222.5,-217 228.5,-217"/>
<text text-anchor="middle" x="271" y="-489.8" font-family="Times,serif" font-size="14.00">PartiesController</text>
<polyline fill="none" stroke="black" points="216.5,-482 325.5,-482 "/>
<text text-anchor="start" x="224.5" y="-466.8" font-family="Times,serif" font-size="14.00">create</text>
<text text-anchor="start" x="224.5" y="-451.8" font-family="Times,serif" font-size="14.00">destroy</text>
<text text-anchor="start" x="224.5" y="-436.8" font-family="Times,serif" font-size="14.00">edit</text>
<text text-anchor="start" x="224.5" y="-421.8" font-family="Times,serif" font-size="14.00">edit_date</text>
<text text-anchor="start" x="224.5" y="-406.8" font-family="Times,serif" font-size="14.00">edit_venue</text>
<text text-anchor="start" x="224.5" y="-391.8" font-family="Times,serif" font-size="14.00">index</text>
<text text-anchor="start" x="224.5" y="-376.8" font-family="Times,serif" font-size="14.00">new</text>
<text text-anchor="start" x="224.5" y="-361.8" font-family="Times,serif" font-size="14.00">show</text>
<text text-anchor="start" x="224.5" y="-346.8" font-family="Times,serif" font-size="14.00">update</text>
<polyline fill="none" stroke="black" points="216.5,-339 325.5,-339 "/>
<polyline fill="none" stroke="black" points="216.5,-315 325.5,-315 "/>
<text text-anchor="start" x="224.5" y="-299.8" font-family="Times,serif" font-size="14.00">_layout</text>
<text text-anchor="start" x="224.5" y="-284.8" font-family="Times,serif" font-size="14.00">create_catalogue</text>
<text text-anchor="start" x="224.5" y="-269.8" font-family="Times,serif" font-size="14.00">create_visitor</text>
<text text-anchor="start" x="224.5" y="-254.8" font-family="Times,serif" font-size="14.00">party_params</text>
<text text-anchor="start" x="224.5" y="-239.8" font-family="Times,serif" font-size="14.00">resolve_flash</text>
<text text-anchor="start" x="224.5" y="-224.8" font-family="Times,serif" font-size="14.00">resolve_layout</text>
</g>
<!-- RegistrationsController -->
<g id="node15" class="node"><title>RegistrationsController</title>
<path fill="none" stroke="black" d="M-95.5,-378.5C-95.5,-378.5 23.5,-378.5 23.5,-378.5 29.5,-378.5 35.5,-384.5 35.5,-390.5 35.5,-390.5 35.5,-519.5 35.5,-519.5 35.5,-525.5 29.5,-531.5 23.5,-531.5 23.5,-531.5 -95.5,-531.5 -95.5,-531.5 -101.5,-531.5 -107.5,-525.5 -107.5,-519.5 -107.5,-519.5 -107.5,-390.5 -107.5,-390.5 -107.5,-384.5 -101.5,-378.5 -95.5,-378.5"/>
<text text-anchor="middle" x="-36" y="-516.3" font-family="Times,serif" font-size="14.00">RegistrationsController</text>
<polyline fill="none" stroke="black" points="-107.5,-508.5 35.5,-508.5 "/>
<text text-anchor="start" x="-99.5" y="-493.3" font-family="Times,serif" font-size="14.00">create</text>
<text text-anchor="start" x="-99.5" y="-478.3" font-family="Times,serif" font-size="14.00">new</text>
<polyline fill="none" stroke="black" points="-107.5,-470.5 35.5,-470.5 "/>
<polyline fill="none" stroke="black" points="-107.5,-446.5 35.5,-446.5 "/>
<text text-anchor="start" x="-99.5" y="-431.3" font-family="Times,serif" font-size="14.00">_layout</text>
<text text-anchor="start" x="-99.5" y="-416.3" font-family="Times,serif" font-size="14.00">create_notification</text>
<text text-anchor="start" x="-99.5" y="-401.3" font-family="Times,serif" font-size="14.00">create_visitor</text>
<text text-anchor="start" x="-99.5" y="-386.3" font-family="Times,serif" font-size="14.00">user_params</text>
</g>
<!-- NotificationsController -->
<g id="node16" class="node"><title>NotificationsController</title>
<path fill="none" stroke="black" d="M-311.5,324C-311.5,324 -192.5,324 -192.5,324 -186.5,324 -180.5,318 -180.5,312 -180.5,312 -180.5,168 -180.5,168 -180.5,162 -186.5,156 -192.5,156 -192.5,156 -311.5,156 -311.5,156 -317.5,156 -323.5,162 -323.5,168 -323.5,168 -323.5,312 -323.5,312 -323.5,318 -317.5,324 -311.5,324"/>
<text text-anchor="middle" x="-252" y="171.2" font-family="Times,serif" font-size="14.00">NotificationsController</text>
<polyline fill="none" stroke="black" points="-323.5,179 -180.5,179 "/>
<text text-anchor="start" x="-315.5" y="194.2" font-family="Times,serif" font-size="14.00">index</text>
<text text-anchor="start" x="-315.5" y="209.2" font-family="Times,serif" font-size="14.00">link_through</text>
<text text-anchor="start" x="-315.5" y="224.2" font-family="Times,serif" font-size="14.00">show</text>
<polyline fill="none" stroke="black" points="-323.5,232 -180.5,232 "/>
<polyline fill="none" stroke="black" points="-323.5,256 -180.5,256 "/>
<text text-anchor="start" x="-315.5" y="271.2" font-family="Times,serif" font-size="14.00">_layout</text>
<text text-anchor="start" x="-315.5" y="286.2" font-family="Times,serif" font-size="14.00">find_title</text>
<text text-anchor="start" x="-315.5" y="301.2" font-family="Times,serif" font-size="14.00">find_visitor</text>
<text text-anchor="start" x="-315.5" y="316.2" font-family="Times,serif" font-size="14.00">notification_params</text>
</g>
<!-- OmniauthCallbacksController -->
<g id="node17" class="node"><title>OmniauthCallbacksController</title>
<path fill="none" stroke="black" d="M264,252C264,252 420,252 420,252 426,252 432,246 432,240 432,240 432,96 432,96 432,90 426,84 420,84 420,84 264,84 264,84 258,84 252,90 252,96 252,96 252,240 252,240 252,246 258,252 264,252"/>
<text text-anchor="middle" x="342" y="99.2" font-family="Times,serif" font-size="14.00">OmniauthCallbacksController</text>
<polyline fill="none" stroke="black" points="252,107 432,107 "/>
<text text-anchor="start" x="260" y="122.2" font-family="Times,serif" font-size="14.00">all</text>
<text text-anchor="start" x="260" y="137.2" font-family="Times,serif" font-size="14.00">facebook</text>
<text text-anchor="start" x="260" y="152.2" font-family="Times,serif" font-size="14.00">google_oauth2</text>
<text text-anchor="start" x="260" y="167.2" font-family="Times,serif" font-size="14.00">twitter</text>
<text text-anchor="start" x="260" y="182.2" font-family="Times,serif" font-size="14.00">yahoo_oauth2</text>
<polyline fill="none" stroke="black" points="252,190 432,190 "/>
<polyline fill="none" stroke="black" points="252,214 432,214 "/>
<text text-anchor="start" x="260" y="229.2" font-family="Times,serif" font-size="14.00">_layout</text>
<text text-anchor="start" x="260" y="244.2" font-family="Times,serif" font-size="14.00">yahoo_callback</text>
</g>
<!-- FriendsController -->
<g id="node18" class="node"><title>FriendsController</title>
<path fill="none" stroke="black" d="M-131.5,395C-131.5,395 -42.5,395 -42.5,395 -36.5,395 -30.5,389 -30.5,383 -30.5,383 -30.5,313 -30.5,313 -30.5,307 -36.5,301 -42.5,301 -42.5,301 -131.5,301 -131.5,301 -137.5,301 -143.5,307 -143.5,313 -143.5,313 -143.5,383 -143.5,383 -143.5,389 -137.5,395 -131.5,395"/>
<text text-anchor="middle" x="-87" y="316.2" font-family="Times,serif" font-size="14.00">FriendsController</text>
<polyline fill="none" stroke="black" points="-143.5,324 -30.5,324 "/>
<polyline fill="none" stroke="black" points="-143.5,348 -30.5,348 "/>
<polyline fill="none" stroke="black" points="-143.5,372 -30.5,372 "/>
<text text-anchor="start" x="-135.5" y="387.2" font-family="Times,serif" font-size="14.00">_layout</text>
</g>
<!-- ContactsController -->
<g id="node19" class="node"><title>ContactsController</title>
<path fill="none" stroke="black" d="M-401.5,-0.5C-401.5,-0.5 -306.5,-0.5 -306.5,-0.5 -300.5,-0.5 -294.5,-6.5 -294.5,-12.5 -294.5,-12.5 -294.5,-111.5 -294.5,-111.5 -294.5,-117.5 -300.5,-123.5 -306.5,-123.5 -306.5,-123.5 -401.5,-123.5 -401.5,-123.5 -407.5,-123.5 -413.5,-117.5 -413.5,-111.5 -413.5,-111.5 -413.5,-12.5 -413.5,-12.5 -413.5,-6.5 -407.5,-0.5 -401.5,-0.5"/>
<text text-anchor="middle" x="-354" y="-108.3" font-family="Times,serif" font-size="14.00">ContactsController</text>
<polyline fill="none" stroke="black" points="-413.5,-100.5 -294.5,-100.5 "/>
<text text-anchor="start" x="-405.5" y="-85.3" font-family="Times,serif" font-size="14.00">create</text>
<text text-anchor="start" x="-405.5" y="-70.3" font-family="Times,serif" font-size="14.00">new</text>
<text text-anchor="start" x="-405.5" y="-55.3" font-family="Times,serif" font-size="14.00">show</text>
<polyline fill="none" stroke="black" points="-413.5,-47.5 -294.5,-47.5 "/>
<polyline fill="none" stroke="black" points="-413.5,-23.5 -294.5,-23.5 "/>
<text text-anchor="start" x="-405.5" y="-8.3" font-family="Times,serif" font-size="14.00">_layout</text>
</g>
<!-- PrivaciesController -->
<g id="node20" class="node"><title>PrivaciesController</title>
<path fill="none" stroke="black" d="M12,431.5C12,431.5 110,431.5 110,431.5 116,431.5 122,425.5 122,419.5 122,419.5 122,350.5 122,350.5 122,344.5 116,338.5 110,338.5 110,338.5 12,338.5 12,338.5 6,338.5 0,344.5 0,350.5 0,350.5 0,419.5 0,419.5 0,425.5 6,431.5 12,431.5"/>
<text text-anchor="middle" x="61" y="353.7" font-family="Times,serif" font-size="14.00">PrivaciesController</text>
<polyline fill="none" stroke="black" points="0,361.5 122,361.5 "/>
<text text-anchor="start" x="8" y="376.7" font-family="Times,serif" font-size="14.00">show</text>
<polyline fill="none" stroke="black" points="0,384.5 122,384.5 "/>
<polyline fill="none" stroke="black" points="0,408.5 122,408.5 "/>
<text text-anchor="start" x="8" y="423.7" font-family="Times,serif" font-size="14.00">_layout</text>
</g>
<!-- ReservationsController -->
<g id="node21" class="node"><title>ReservationsController</title>
<path fill="none" stroke="black" d="M264,53.5C264,53.5 382,53.5 382,53.5 388,53.5 394,47.5 394,41.5 394,41.5 394,-117.5 394,-117.5 394,-123.5 388,-129.5 382,-129.5 382,-129.5 264,-129.5 264,-129.5 258,-129.5 252,-123.5 252,-117.5 252,-117.5 252,41.5 252,41.5 252,47.5 258,53.5 264,53.5"/>
<text text-anchor="middle" x="323" y="-114.3" font-family="Times,serif" font-size="14.00">ReservationsController</text>
<polyline fill="none" stroke="black" points="252,-106.5 394,-106.5 "/>
<text text-anchor="start" x="260" y="-91.3" font-family="Times,serif" font-size="14.00">create</text>
<text text-anchor="start" x="260" y="-76.3" font-family="Times,serif" font-size="14.00">destroy</text>
<text text-anchor="start" x="260" y="-61.3" font-family="Times,serif" font-size="14.00">index</text>
<polyline fill="none" stroke="black" points="252,-53.5 394,-53.5 "/>
<polyline fill="none" stroke="black" points="252,-29.5 394,-29.5 "/>
<text text-anchor="start" x="260" y="-14.3" font-family="Times,serif" font-size="14.00">_layout</text>
<text text-anchor="start" x="260" y="0.7" font-family="Times,serif" font-size="14.00">find_party</text>
<text text-anchor="start" x="260" y="15.7" font-family="Times,serif" font-size="14.00">find_visitor</text>
<text text-anchor="start" x="260" y="30.7" font-family="Times,serif" font-size="14.00">reservation_params</text>
<text text-anchor="start" x="260" y="45.7" font-family="Times,serif" font-size="14.00">resolve_layout</text>
</g>
<!-- PublicController -->
<g id="node22" class="node"><title>PublicController</title>
<path fill="none" stroke="black" d="M-420.5,-433C-420.5,-433 -337.5,-433 -337.5,-433 -331.5,-433 -325.5,-439 -325.5,-445 -325.5,-445 -325.5,-515 -325.5,-515 -325.5,-521 -331.5,-527 -337.5,-527 -337.5,-527 -420.5,-527 -420.5,-527 -426.5,-527 -432.5,-521 -432.5,-515 -432.5,-515 -432.5,-445 -432.5,-445 -432.5,-439 -426.5,-433 -420.5,-433"/>
<text text-anchor="middle" x="-379" y="-511.8" font-family="Times,serif" font-size="14.00">PublicController</text>
<polyline fill="none" stroke="black" points="-432.5,-504 -325.5,-504 "/>
<polyline fill="none" stroke="black" points="-432.5,-480 -325.5,-480 "/>
<polyline fill="none" stroke="black" points="-432.5,-456 -325.5,-456 "/>
<text text-anchor="start" x="-424.5" y="-440.8" font-family="Times,serif" font-size="14.00">_layout</text>
</g>
<!-- VisitorsController -->
<g id="node23" class="node"><title>VisitorsController</title>
<path fill="none" stroke="black" d="M443.5,53C443.5,53 534.5,53 534.5,53 540.5,53 546.5,47 546.5,41 546.5,41 546.5,-43 546.5,-43 546.5,-49 540.5,-55 534.5,-55 534.5,-55 443.5,-55 443.5,-55 437.5,-55 431.5,-49 431.5,-43 431.5,-43 431.5,41 431.5,41 431.5,47 437.5,53 443.5,53"/>
<text text-anchor="middle" x="489" y="-39.8" font-family="Times,serif" font-size="14.00">VisitorsController</text>
<polyline fill="none" stroke="black" points="431.5,-32 546.5,-32 "/>
<text text-anchor="start" x="439.5" y="-16.8" font-family="Times,serif" font-size="14.00">index</text>
<text text-anchor="start" x="439.5" y="-1.8" font-family="Times,serif" font-size="14.00">show</text>
<polyline fill="none" stroke="black" points="431.5,6 546.5,6 "/>
<polyline fill="none" stroke="black" points="431.5,30 546.5,30 "/>
<text text-anchor="start" x="439.5" y="45.2" font-family="Times,serif" font-size="14.00">_layout</text>
</g>
</g>
</svg>
