<?xml version="1.0" encoding="UTF-8" standalone="no"?>
<!DOCTYPE svg PUBLIC "-//W3C//DTD SVG 1.1//EN"
 "http://www.w3.org/Graphics/SVG/1.1/DTD/svg11.dtd">
<!-- Generated by graphviz version 2.38.0 (20140413.2041)
 -->
<!-- Title: models_diagram Pages: 1 -->
<svg width="1593pt" height="639pt"
 viewBox="0.00 0.00 1593.15 639.00" xmlns="http://www.w3.org/2000/svg" xmlns:xlink="http://www.w3.org/1999/xlink">
<g id="graph0" class="graph" transform="scale(1 1) rotate(0) translate(4 635)">
<title>models_diagram</title>
<polygon fill="none" stroke="none" points="-4,4 -4,-635 1589.15,-635 1589.15,4 -4,4"/>
<!-- _diagram_info -->
<g id="node1" class="node"><title>_diagram_info</title>
<text text-anchor="start" x="248.645" y="-616.6" font-family="Times,serif" font-size="13.00">Models diagram</text>
<text text-anchor="start" x="248.645" y="-602.6" font-family="Times,serif" font-size="13.00">Date: Aug 12 2017 &#45; 22:58</text>
<text text-anchor="start" x="248.645" y="-588.6" font-family="Times,serif" font-size="13.00">Migration version: 20170805110752</text>
<text text-anchor="start" x="248.645" y="-574.6" font-family="Times,serif" font-size="13.00">Generated by RailRoady 1.5.3</text>
<text text-anchor="start" x="248.645" y="-560.6" font-family="Times,serif" font-size="13.00">http://railroady.prestonlee.com</text>
</g>
<!-- Visitor -->
<g id="node2" class="node"><title>Visitor</title>
<ellipse fill="none" stroke="black" cx="351.645" cy="-178" rx="35.194" ry="18"/>
<text text-anchor="middle" x="351.645" y="-174.3" font-family="Times,serif" font-size="14.00">Visitor</text>
</g>
<!-- Album -->
<g id="node3" class="node"><title>Album</title>
<ellipse fill="none" stroke="black" cx="158.645" cy="-105" rx="35.9954" ry="18"/>
<text text-anchor="middle" x="158.645" y="-101.3" font-family="Times,serif" font-size="14.00">Album</text>
</g>
<!-- Visitor&#45;&gt;Album -->
<g id="edge5" class="edge"><title>Visitor&#45;&gt;Album</title>
<path fill="none" stroke="#1b709a" d="M316.095,-164.157C286.089,-153.286 242.011,-137.246 203.645,-123 201.091,-122.052 198.457,-121.069 195.805,-120.076"/>
<ellipse fill="none" stroke="#1b709a" cx="320.027" cy="-165.581" rx="4.00001" ry="4.00001"/>
<polygon fill="#1b709a" stroke="#1b709a" points="195.593,-119.996 187.816,-112.266 190.913,-118.237 186.233,-116.478 186.233,-116.478 186.233,-116.478 190.913,-118.237 184.65,-120.691 195.593,-119.996 195.593,-119.996"/>
</g>
<!-- Notification -->
<g id="node7" class="node"><title>Notification</title>
<ellipse fill="none" stroke="black" cx="534.645" cy="-105" rx="53.0913" ry="18"/>
<text text-anchor="middle" x="534.645" y="-101.3" font-family="Times,serif" font-size="14.00">Notification</text>
</g>
<!-- Visitor&#45;&gt;Notification -->
<g id="edge4" class="edge"><title>Visitor&#45;&gt;Notification</title>
<path fill="none" stroke="#1e89a3" d="M383.981,-161.849C398.701,-155.154 416.424,-147.374 432.645,-141 450.27,-134.075 469.891,-127.158 487.179,-121.324"/>
<ellipse fill="none" stroke="#1e89a3" cx="380.218" cy="-163.572" rx="4.00002" ry="4.00002"/>
<polygon fill="#1e89a3" stroke="#1e89a3" points="487.572,-121.193 498.483,-122.291 492.314,-119.608 497.056,-118.023 497.056,-118.023 497.056,-118.023 492.314,-119.608 495.629,-113.755 487.572,-121.193 487.572,-121.193"/>
</g>
<!-- Reservation -->
<g id="node18" class="node"><title>Reservation</title>
<ellipse fill="none" stroke="black" cx="52.6453" cy="-105" rx="52.7911" ry="18"/>
<text text-anchor="middle" x="52.6453" y="-101.3" font-family="Times,serif" font-size="14.00">Reservation</text>
</g>
<!-- Visitor&#45;&gt;Reservation -->
<g id="edge3" class="edge"><title>Visitor&#45;&gt;Reservation</title>
<path fill="none" stroke="#7f49eb" d="M311.699,-168.559C264.301,-158.399 182.961,-140.511 113.645,-123 109.07,-121.844 104.315,-120.598 99.5675,-119.324"/>
<ellipse fill="none" stroke="#7f49eb" cx="315.664" cy="-169.406" rx="4.00001" ry="4.00001"/>
<ellipse fill="#7f49eb" stroke="#7f49eb" cx="95.4801" cy="-118.214" rx="4.00001" ry="4.00001"/>
</g>
<!-- Comment -->
<g id="node19" class="node"><title>Comment</title>
<ellipse fill="none" stroke="black" cx="258.645" cy="-105" rx="46.2923" ry="18"/>
<text text-anchor="middle" x="258.645" y="-101.3" font-family="Times,serif" font-size="14.00">Comment</text>
</g>
<!-- Visitor&#45;&gt;Comment -->
<g id="edge2" class="edge"><title>Visitor&#45;&gt;Comment</title>
<path fill="none" stroke="#3f93e4" d="M326.245,-157.609C314.096,-148.333 299.508,-137.196 286.998,-127.645"/>
<ellipse fill="none" stroke="#3f93e4" cx="329.646" cy="-160.205" rx="4.00002" ry="4.00002"/>
<polygon fill="#3f93e4" stroke="#3f93e4" points="286.673,-127.398 281.455,-117.753 282.699,-124.364 278.725,-121.329 278.725,-121.329 278.725,-121.329 282.699,-124.364 275.994,-124.906 286.673,-127.398 286.673,-127.398"/>
</g>
<!-- ActsAsVotable::Vote -->
<g id="node21" class="node"><title>ActsAsVotable::Vote</title>
<ellipse fill="none" stroke="black" cx="319.645" cy="-18" rx="86.3847" ry="18"/>
<text text-anchor="middle" x="319.645" y="-14.3" font-family="Times,serif" font-size="14.00">ActsAsVotable::Vote</text>
</g>
<!-- Visitor&#45;&gt;ActsAsVotable::Vote -->
<g id="edge1" class="edge"><title>Visitor&#45;&gt;ActsAsVotable::Vote</title>
<path fill="none" stroke="#b10652" d="M362.728,-152.556C369.499,-134.217 375.634,-108.653 368.645,-87 363.489,-71.0231 353.027,-55.6353 343.09,-43.5509"/>
<ellipse fill="none" stroke="#b10652" cx="361.087" cy="-156.713" rx="4.00001" ry="4.00001"/>
<polygon fill="#b10652" stroke="#b10652" points="342.893,-43.3221 339.775,-32.8087 339.63,-39.534 336.366,-35.7459 336.366,-35.7459 336.366,-35.7459 339.63,-39.534 332.957,-38.683 342.893,-43.3221 342.893,-43.3221"/>
<text text-anchor="middle" x="386.145" y="-101.3" font-family="Times,serif" font-size="14.00">votes</text>
</g>
<!-- Album&#45;&gt;ActsAsVotable::Vote -->
<g id="edge6" class="edge"><title>Album&#45;&gt;ActsAsVotable::Vote</title>
<path fill="none" stroke="#0617c9" d="M189.765,-87.5702C215.611,-73.9249 252.523,-54.4372 280.395,-39.7222"/>
<ellipse fill="none" stroke="#0617c9" cx="185.939" cy="-89.5904" rx="4.00002" ry="4.00002"/>
<polygon fill="#0617c9" stroke="#0617c9" points="280.628,-39.599 291.573,-38.9096 285.05,-37.2646 289.472,-34.9302 289.472,-34.9302 289.472,-34.9302 285.05,-37.2646 287.371,-30.9507 280.628,-39.599 280.628,-39.599"/>
<text text-anchor="middle" x="275.645" y="-57.8" font-family="Times,serif" font-size="14.00">votes_for</text>
</g>
<!-- ApplicationRecord -->
<g id="node4" class="node"><title>ApplicationRecord</title>
<ellipse fill="none" stroke="black" cx="1122.65" cy="-592" rx="77.1866" ry="18"/>
<text text-anchor="middle" x="1122.65" y="-588.3" font-family="Times,serif" font-size="14.00">ApplicationRecord</text>
</g>
<!-- AdminUser -->
<g id="node5" class="node"><title>AdminUser</title>
<ellipse fill="none" stroke="black" cx="1269.65" cy="-592" rx="51.9908" ry="18"/>
<text text-anchor="middle" x="1269.65" y="-588.3" font-family="Times,serif" font-size="14.00">AdminUser</text>
</g>
<!-- Party -->
<g id="node6" class="node"><title>Party</title>
<ellipse fill="none" stroke="black" cx="333.645" cy="-498" rx="29.4969" ry="18"/>
<text text-anchor="middle" x="333.645" y="-494.3" font-family="Times,serif" font-size="14.00">Party</text>
</g>
<!-- Party&#45;&gt;Visitor -->
<g id="edge8" class="edge"><title>Party&#45;&gt;Visitor</title>
<path fill="none" stroke="#4f1cd5" d="M307.824,-479.437C292.403,-467.298 274.199,-449.65 265.645,-429 259.522,-414.218 262.607,-408.709 265.645,-393 279.454,-321.606 316.952,-243.809 337.578,-204.623"/>
<ellipse fill="none" stroke="#4f1cd5" cx="311.04" cy="-481.878" rx="4.00002" ry="4.00002"/>
<polygon fill="#4f1cd5" stroke="#4f1cd5" points="337.727,-204.344 346.404,-197.638 340.081,-199.932 342.434,-195.52 342.434,-195.52 342.434,-195.52 340.081,-199.932 338.463,-193.402 337.727,-204.344 337.727,-204.344"/>
</g>
<!-- Party&#45;&gt;Album -->
<g id="edge13" class="edge"><title>Party&#45;&gt;Album</title>
<path fill="none" stroke="#b7c24f" d="M299.143,-487.97C251.304,-473.124 170.645,-438.654 170.645,-375 170.645,-375 170.645,-375 170.645,-177 170.645,-162.302 168.114,-146.129 165.377,-132.936"/>
<ellipse fill="none" stroke="#b7c24f" cx="303.262" cy="-489.204" rx="4.00001" ry="4.00001"/>
<polygon fill="#b7c24f" stroke="#b7c24f" points="165.356,-132.841 167.574,-122.102 164.269,-127.96 163.182,-123.08 163.182,-123.08 163.182,-123.08 164.269,-127.96 158.79,-124.058 165.356,-132.841 165.356,-132.841"/>
</g>
<!-- Party&#45;&gt;Notification -->
<g id="edge12" class="edge"><title>Party&#45;&gt;Notification</title>
<path fill="none" stroke="#9d8c94" d="M353.314,-475.826C356.966,-471.417 360.589,-466.683 363.645,-462 438.744,-346.927 501.057,-193.852 524.58,-132.794"/>
<ellipse fill="none" stroke="#9d8c94" cx="350.61" cy="-478.973" rx="4.00002" ry="4.00002"/>
<polygon fill="#9d8c94" stroke="#9d8c94" points="524.697,-132.487 532.471,-124.753 526.482,-127.817 528.268,-123.147 528.268,-123.147 528.268,-123.147 526.482,-127.817 524.064,-121.54 524.697,-132.487 524.697,-132.487"/>
</g>
<!-- Request -->
<g id="node9" class="node"><title>Request</title>
<ellipse fill="none" stroke="black" cx="567.645" cy="-251" rx="38.9931" ry="18"/>
<text text-anchor="middle" x="567.645" y="-247.3" font-family="Times,serif" font-size="14.00">Request</text>
</g>
<!-- Party&#45;&gt;Request -->
<g id="edge9" class="edge"><title>Party&#45;&gt;Request</title>
<path fill="none" stroke="#a6affc" d="M367.202,-486.206C381.573,-480.507 397.936,-472.489 410.645,-462 439.655,-438.059 437.317,-423.268 459.645,-393 490.168,-351.623 526.75,-304.326 548.547,-276.376"/>
<ellipse fill="none" stroke="#a6affc" cx="363.2" cy="-487.719" rx="4.00001" ry="4.00001"/>
<polygon fill="#a6affc" stroke="#a6affc" points="548.659,-276.233 558.361,-271.121 551.737,-272.292 554.814,-268.351 554.814,-268.351 554.814,-268.351 551.737,-272.292 551.268,-265.582 548.659,-276.233 548.659,-276.233"/>
</g>
<!-- Catalogue -->
<g id="node12" class="node"><title>Catalogue</title>
<ellipse fill="none" stroke="black" cx="594.645" cy="-411" rx="46.2923" ry="18"/>
<text text-anchor="middle" x="594.645" y="-407.3" font-family="Times,serif" font-size="14.00">Catalogue</text>
</g>
<!-- Party&#45;&gt;Catalogue -->
<g id="edge7" class="edge"><title>Party&#45;&gt;Catalogue</title>
<path fill="none" stroke="#1c90dd" d="M364.623,-484.052C368.633,-482.584 372.712,-481.19 376.645,-480 413.19,-468.943 423.995,-472.702 460.645,-462 493.018,-452.547 528.759,-439.05 555.181,-428.462"/>
<ellipse fill="none" stroke="#1c90dd" cx="360.792" cy="-485.511" rx="4.00001" ry="4.00001"/>
<polygon fill="#1c90dd" stroke="#1c90dd" points="555.2,-428.454 566.158,-428.877 559.836,-426.58 564.471,-424.705 564.471,-424.705 564.471,-424.705 559.836,-426.58 562.784,-420.533 555.2,-428.454 555.2,-428.454"/>
</g>
<!-- Photo -->
<g id="node14" class="node"><title>Photo</title>
<ellipse fill="none" stroke="black" cx="305.645" cy="-411" rx="31.3957" ry="18"/>
<text text-anchor="middle" x="305.645" y="-407.3" font-family="Times,serif" font-size="14.00">Photo</text>
</g>
<!-- Party&#45;&gt;Photo -->
<g id="edge15" class="edge"><title>Party&#45;&gt;Photo</title>
<path fill="none" stroke="#4a8cba" d="M325.537,-472.387C322.041,-461.773 317.945,-449.34 314.382,-438.522"/>
<ellipse fill="none" stroke="#4a8cba" cx="326.862" cy="-476.408" rx="4.00001" ry="4.00001"/>
<polygon fill="#4a8cba" stroke="#4a8cba" points="314.295,-438.256 315.44,-427.35 312.73,-433.507 311.166,-428.758 311.166,-428.758 311.166,-428.758 312.73,-433.507 306.892,-430.166 314.295,-438.256 314.295,-438.256"/>
</g>
<!-- Invite -->
<g id="node17" class="node"><title>Invite</title>
<ellipse fill="none" stroke="black" cx="499.645" cy="-411" rx="31.3957" ry="18"/>
<text text-anchor="middle" x="499.645" y="-407.3" font-family="Times,serif" font-size="14.00">Invite</text>
</g>
<!-- Party&#45;&gt;Invite -->
<g id="edge10" class="edge"><title>Party&#45;&gt;Invite</title>
<path fill="none" stroke="#d9d975" d="M364.727,-484.371C368.72,-482.849 372.766,-481.356 376.645,-480 402.525,-470.953 411.324,-474.652 435.645,-462 450.241,-454.408 464.826,-443.35 476.38,-433.562"/>
<ellipse fill="none" stroke="#d9d975" cx="360.903" cy="-485.856" rx="4.00001" ry="4.00001"/>
<polygon fill="#d9d975" stroke="#d9d975" points="476.678,-433.302 487.171,-430.118 480.445,-430.015 484.213,-426.727 484.213,-426.727 484.213,-426.727 480.445,-430.015 481.254,-423.337 476.678,-433.302 476.678,-433.302"/>
</g>
<!-- Party&#45;&gt;Reservation -->
<g id="edge14" class="edge"><title>Party&#45;&gt;Reservation</title>
<path fill="none" stroke="#6b306b" d="M295.75,-497.184C237.508,-495.256 132.645,-482.057 132.645,-412 132.645,-412 132.645,-412 132.645,-293.5 132.645,-231.123 94.7253,-165.761 71.0994,-131.091"/>
<ellipse fill="none" stroke="#6b306b" cx="299.988" cy="-497.291" rx="4" ry="4"/>
<polygon fill="#6b306b" stroke="#6b306b" points="70.8667,-130.758 68.8361,-119.981 68.006,-126.657 65.1453,-122.556 65.1453,-122.556 65.1453,-122.556 68.006,-126.657 61.4546,-125.131 70.8667,-130.758 70.8667,-130.758"/>
</g>
<!-- Party&#45;&gt;Comment -->
<g id="edge11" class="edge"><title>Party&#45;&gt;Comment</title>
<path fill="none" stroke="#f02518" d="M344.355,-472.891C352.51,-450.607 360.106,-417.359 345.645,-393 320.061,-349.902 246.645,-389.12 246.645,-339 246.645,-339 246.645,-339 246.645,-177 246.645,-162.302 249.176,-146.129 251.914,-132.936"/>
<ellipse fill="none" stroke="#f02518" cx="342.817" cy="-476.841" rx="4.00001" ry="4.00001"/>
<polygon fill="#f02518" stroke="#f02518" points="251.935,-132.841 258.501,-124.058 253.022,-127.96 254.109,-123.08 254.109,-123.08 254.109,-123.08 253.022,-127.96 249.716,-122.102 251.935,-132.841 251.935,-132.841"/>
</g>
<!-- User -->
<g id="node8" class="node"><title>User</title>
<ellipse fill="none" stroke="black" cx="499.645" cy="-592" rx="27.0966" ry="18"/>
<text text-anchor="middle" x="499.645" y="-588.3" font-family="Times,serif" font-size="14.00">User</text>
</g>
<!-- User&#45;&gt;Visitor -->
<g id="edge22" class="edge"><title>User&#45;&gt;Visitor</title>
<path fill="none" stroke="#1f0ba0" d="M483.624,-569.03C478.006,-562.862 471.191,-556.806 463.645,-553 389.651,-515.68 94.6453,-581.873 94.6453,-499 94.6453,-499 94.6453,-499 94.6453,-293.5 94.6453,-202.017 232.201,-183.107 306.041,-179.547"/>
<ellipse fill="none" stroke="#1f0ba0" cx="486.238" cy="-572.108" rx="4.00002" ry="4.00002"/>
<polygon fill="#1f0ba0" stroke="#1f0ba0" points="306.458,-179.53 316.631,-183.622 311.454,-179.328 316.449,-179.126 316.449,-179.126 316.449,-179.126 311.454,-179.328 316.268,-174.629 306.458,-179.53 306.458,-179.53"/>
</g>
<!-- User&#45;&gt;Party -->
<g id="edge17" class="edge"><title>User&#45;&gt;Party</title>
<path fill="none" stroke="#edaee3" d="M483.532,-569.208C477.91,-563.048 471.116,-556.952 463.645,-553 419.468,-529.63 393.235,-564.159 352.645,-535 349.029,-532.402 346.043,-528.903 343.594,-525.103"/>
<ellipse fill="none" stroke="#edaee3" cx="486.149" cy="-572.271" rx="4.00002" ry="4.00002"/>
<polygon fill="#edaee3" stroke="#edaee3" points="343.453,-524.834 342.802,-513.887 341.134,-520.404 338.815,-515.974 338.815,-515.974 338.815,-515.974 341.134,-520.404 334.829,-518.061 343.453,-524.834 343.453,-524.834"/>
</g>
<!-- User&#45;&gt;Notification -->
<g id="edge23" class="edge"><title>User&#45;&gt;Notification</title>
<path fill="none" stroke="#14a511" d="M525.754,-574.428C571.895,-545.226 664.521,-487.011 680.645,-480 708.135,-468.048 717.361,-471.927 745.645,-462 876.592,-416.044 1032.65,-477.776 1032.65,-339 1032.65,-339 1032.65,-339 1032.65,-177 1032.65,-133.538 731.529,-114.737 597.588,-108.524"/>
<ellipse fill="none" stroke="#14a511" cx="522.146" cy="-576.713" rx="4.00002" ry="4.00002"/>
<polygon fill="#14a511" stroke="#14a511" points="597.458,-108.518 587.673,-103.569 592.463,-108.291 587.469,-108.064 587.469,-108.064 587.469,-108.064 592.463,-108.291 587.264,-112.559 597.458,-108.518 597.458,-108.518"/>
</g>
<!-- Profile -->
<g id="node11" class="node"><title>Profile</title>
<ellipse fill="none" stroke="black" cx="723.645" cy="-498" rx="34.394" ry="18"/>
<text text-anchor="middle" x="723.645" y="-494.3" font-family="Times,serif" font-size="14.00">Profile</text>
</g>
<!-- User&#45;&gt;Profile -->
<g id="edge16" class="edge"><title>User&#45;&gt;Profile</title>
<path fill="none" stroke="#4604f6" d="M533.328,-583.847C569.751,-575.312 628.874,-559.099 675.645,-535 684.153,-530.617 692.736,-524.743 700.245,-519.013"/>
<ellipse fill="none" stroke="#4604f6" cx="529.366" cy="-584.757" rx="4.00001" ry="4.00001"/>
<ellipse fill="#4604f6" stroke="#4604f6" cx="703.666" cy="-516.315" rx="4.00002" ry="4.00002"/>
</g>
<!-- User&#45;&gt;Catalogue -->
<g id="edge24" class="edge"><title>User&#45;&gt;Catalogue</title>
<path fill="none" stroke="#fb0b15" d="M520.197,-570.627C533.588,-556.377 550.568,-536.324 561.645,-516 575.045,-491.415 583.973,-460.549 589.125,-438.851"/>
<ellipse fill="none" stroke="#fb0b15" cx="517.099" cy="-573.859" rx="4.00002" ry="4.00002"/>
<polygon fill="#fb0b15" stroke="#fb0b15" points="589.146,-438.756 595.743,-429.997 590.25,-433.88 591.354,-429.003 591.354,-429.003 591.354,-429.003 590.25,-433.88 586.965,-428.01 589.146,-438.756 589.146,-438.756"/>
</g>
<!-- User&#45;&gt;Invite -->
<g id="edge18" class="edge"><title>User&#45;&gt;Invite</title>
<path fill="none" stroke="#a93fae" d="M499.645,-565.557C499.645,-532.14 499.645,-473.691 499.645,-439.351"/>
<ellipse fill="none" stroke="#a93fae" cx="499.645" cy="-569.837" rx="4" ry="4"/>
<polygon fill="#a93fae" stroke="#a93fae" points="499.645,-439.111 504.145,-429.111 499.645,-434.111 499.645,-429.111 499.645,-429.111 499.645,-429.111 499.645,-434.111 495.145,-429.111 499.645,-439.111 499.645,-439.111"/>
<text text-anchor="middle" x="528.645" y="-494.3" font-family="Times,serif" font-size="14.00">invitations</text>
</g>
<!-- User&#45;&gt;Invite -->
<g id="edge19" class="edge"><title>User&#45;&gt;Invite</title>
<path fill="none" stroke="#405a98" d="M480.176,-570.205C460.005,-548.607 431.311,-517.707 430.645,-516 424.831,-501.094 422.762,-493.923 430.645,-480 438.306,-466.469 449.001,-472.304 460.645,-462 469.055,-454.559 476.954,-445.11 483.415,-436.434"/>
<ellipse fill="none" stroke="#405a98" cx="483.134" cy="-573.37" rx="4.00002" ry="4.00002"/>
<polygon fill="#405a98" stroke="#405a98" points="483.545,-436.253 493.022,-430.737 486.453,-432.186 489.362,-428.119 489.362,-428.119 489.362,-428.119 486.453,-432.186 485.702,-425.501 483.545,-436.253 483.545,-436.253"/>
<text text-anchor="middle" x="463.145" y="-494.3" font-family="Times,serif" font-size="14.00">sent_invites</text>
</g>
<!-- Friend -->
<g id="node20" class="node"><title>Friend</title>
<ellipse fill="none" stroke="black" cx="668.645" cy="-338" rx="33.5952" ry="18"/>
<text text-anchor="middle" x="668.645" y="-334.3" font-family="Times,serif" font-size="14.00">Friend</text>
</g>
<!-- User&#45;&gt;Friend -->
<g id="edge20" class="edge"><title>User&#45;&gt;Friend</title>
<path fill="none" stroke="#cacc62" d="M483.549,-569.177C477.927,-563.015 471.129,-556.927 463.645,-553 395.942,-517.479 349.212,-570.554 295.645,-516 256.222,-475.85 228.593,-435.348 265.645,-393 289.074,-366.222 525.56,-348.129 624.981,-341.65"/>
<ellipse fill="none" stroke="#cacc62" cx="486.165" cy="-572.243" rx="4.00002" ry="4.00002"/>
<polygon fill="#cacc62" stroke="#cacc62" points="625.027,-341.647 635.295,-345.497 630.017,-341.327 635.006,-341.006 635.006,-341.006 635.006,-341.006 630.017,-341.327 634.718,-336.515 625.027,-341.647 625.027,-341.647"/>
</g>
<!-- User&#45;&gt;Friend -->
<g id="edge21" class="edge"><title>User&#45;&gt;Friend</title>
<path fill="none" stroke="#6852e6" d="M523.816,-573.209C558.33,-546.289 620.749,-491.651 649.645,-429 658.815,-409.12 663.612,-384.721 666.091,-366.346"/>
<ellipse fill="none" stroke="#6852e6" cx="520.474" cy="-575.779" rx="4.00002" ry="4.00002"/>
<polygon fill="#6852e6" stroke="#6852e6" points="666.104,-366.23 671.765,-356.839 666.701,-361.266 667.297,-356.302 667.297,-356.302 667.297,-356.302 666.701,-361.266 662.83,-355.765 666.104,-366.23 666.104,-366.23"/>
<text text-anchor="middle" x="690.645" y="-450.8" font-family="Times,serif" font-size="14.00">occassion_buddies</text>
</g>
<!-- Request&#45;&gt;Visitor -->
<g id="edge25" class="edge"><title>Request&#45;&gt;Visitor</title>
<path fill="none" stroke="#b00a25" d="M529.04,-237.31C489.23,-224.224 427.599,-203.966 388.459,-191.101"/>
<ellipse fill="none" stroke="#b00a25" cx="532.898" cy="-238.578" rx="4.00001" ry="4.00001"/>
<ellipse fill="#b00a25" stroke="#b00a25" cx="384.265" cy="-189.722" rx="4.00001" ry="4.00001"/>
</g>
<!-- Request&#45;&gt;Notification -->
<g id="edge26" class="edge"><title>Request&#45;&gt;Notification</title>
<path fill="none" stroke="#6d6083" d="M561.879,-224.838C555.997,-199.172 546.901,-159.477 540.861,-133.124"/>
<ellipse fill="none" stroke="#6d6083" cx="562.837" cy="-229.017" rx="4.00001" ry="4.00001"/>
<polygon fill="#6d6083" stroke="#6d6083" points="540.789,-132.809 542.942,-122.057 539.672,-127.936 538.555,-123.062 538.555,-123.062 538.555,-123.062 539.672,-127.936 534.169,-124.067 540.789,-132.809 540.789,-132.809"/>
</g>
<!-- Category -->
<g id="node10" class="node"><title>Category</title>
<ellipse fill="none" stroke="black" cx="1382.65" cy="-592" rx="42.7926" ry="18"/>
<text text-anchor="middle" x="1382.65" y="-588.3" font-family="Times,serif" font-size="14.00">Category</text>
</g>
<!-- Message -->
<g id="node13" class="node"><title>Message</title>
<polygon fill="none" stroke="black" points="1508.15,-610 1443.15,-610 1443.15,-574 1508.15,-574 1508.15,-610"/>
<text text-anchor="middle" x="1475.65" y="-588.3" font-family="Times,serif" font-size="14.00">Message</text>
</g>
<!-- FormUser -->
<g id="node15" class="node"><title>FormUser</title>
<ellipse fill="none" stroke="black" cx="980.645" cy="-592" rx="46.5926" ry="18"/>
<text text-anchor="middle" x="980.645" y="-588.3" font-family="Times,serif" font-size="14.00">FormUser</text>
</g>
<!-- FormUser&#45;&gt;Visitor -->
<g id="edge33" class="edge"><title>FormUser&#45;&gt;Visitor</title>
<path fill="none" stroke="#d9a17f" d="M1005.01,-569.726C1042.28,-535.996 1107.53,-471.553 1091.65,-447 934.878,-204.639 532.949,-179.774 397.211,-178.487"/>
<ellipse fill="none" stroke="#d9a17f" cx="1001.83" cy="-572.586" rx="4.00002" ry="4.00002"/>
<polygon fill="#d9a17f" stroke="#d9a17f" points="397.153,-178.487 387.179,-173.931 392.154,-178.459 387.154,-178.431 387.154,-178.431 387.154,-178.431 392.154,-178.459 387.128,-182.931 397.153,-178.487 397.153,-178.487"/>
</g>
<!-- FormUser&#45;&gt;Party -->
<g id="edge28" class="edge"><title>FormUser&#45;&gt;Party</title>
<path fill="none" stroke="#165b52" d="M925.983,-588.834C818.97,-583.586 574.961,-566.642 376.645,-516 373.196,-515.119 369.652,-514.034 366.149,-512.84"/>
<ellipse fill="none" stroke="#165b52" cx="930.069" cy="-589.03" rx="4" ry="4"/>
<polygon fill="#165b52" stroke="#165b52" points="365.878,-512.74 358.058,-505.053 361.188,-511.007 356.498,-509.274 356.498,-509.274 356.498,-509.274 361.188,-511.007 354.938,-513.495 365.878,-512.74 365.878,-512.74"/>
</g>
<!-- FormUser&#45;&gt;Notification -->
<g id="edge34" class="edge"><title>FormUser&#45;&gt;Notification</title>
<path fill="none" stroke="#639d8b" d="M1008.01,-571.198C1016.95,-565.064 1027.05,-558.483 1036.65,-553 1085.32,-525.178 1150.65,-555.063 1150.65,-499 1150.65,-499 1150.65,-499 1150.65,-177 1150.65,-121.795 755.167,-109.474 597.969,-106.757"/>
<ellipse fill="none" stroke="#639d8b" cx="1004.71" cy="-573.493" rx="4.00002" ry="4.00002"/>
<polygon fill="#639d8b" stroke="#639d8b" points="597.964,-106.757 588.04,-102.092 592.965,-106.674 587.966,-106.592 587.966,-106.592 587.966,-106.592 592.965,-106.674 587.891,-111.091 597.964,-106.757 597.964,-106.757"/>
</g>
<!-- FormUser&#45;&gt;Profile -->
<g id="edge27" class="edge"><title>FormUser&#45;&gt;Profile</title>
<path fill="none" stroke="#dbec59" d="M931.302,-581.583C889.712,-572.637 829.226,-557.232 779.645,-535 769.224,-530.327 758.505,-523.898 749.27,-517.765"/>
<ellipse fill="none" stroke="#dbec59" cx="935.446" cy="-582.459" rx="4.00001" ry="4.00001"/>
<ellipse fill="#dbec59" stroke="#dbec59" cx="745.832" cy="-515.42" rx="4.00002" ry="4.00002"/>
</g>
<!-- FormUser&#45;&gt;Catalogue -->
<g id="edge35" class="edge"><title>FormUser&#45;&gt;Catalogue</title>
<path fill="none" stroke="#413bf8" d="M981.485,-565.812C980.984,-541.291 976.557,-504.271 956.645,-480 918.666,-433.705 742.515,-418.753 650.683,-414.061"/>
<ellipse fill="none" stroke="#413bf8" cx="981.502" cy="-569.922" rx="4" ry="4"/>
<polygon fill="#413bf8" stroke="#413bf8" points="650.442,-414.05 640.673,-409.069 645.448,-413.807 640.454,-413.564 640.454,-413.564 640.454,-413.564 645.448,-413.807 640.235,-418.058 650.442,-414.05 650.442,-414.05"/>
</g>
<!-- FormUser&#45;&gt;Invite -->
<g id="edge29" class="edge"><title>FormUser&#45;&gt;Invite</title>
<path fill="none" stroke="#e07f07" d="M936.23,-578.3C899.324,-566.284 846.723,-545.648 807.645,-516 776.181,-492.128 786.552,-465.478 751.645,-447 709.859,-424.879 585.534,-440.39 539.645,-429 537.297,-428.417 534.91,-427.714 532.53,-426.929"/>
<ellipse fill="none" stroke="#e07f07" cx="940.046" cy="-579.518" rx="4.00001" ry="4.00001"/>
<polygon fill="#e07f07" stroke="#e07f07" points="532.279,-426.835 524.478,-419.129 527.593,-425.091 522.907,-423.346 522.907,-423.346 522.907,-423.346 527.593,-425.091 521.337,-427.563 532.279,-426.835 532.279,-426.835"/>
<text text-anchor="middle" x="836.645" y="-494.3" font-family="Times,serif" font-size="14.00">invitations</text>
</g>
<!-- FormUser&#45;&gt;Invite -->
<g id="edge30" class="edge"><title>FormUser&#45;&gt;Invite</title>
<path fill="none" stroke="#95c7ad" d="M951.515,-571.524C931.987,-557.556 906.494,-537.475 887.645,-516 875.276,-501.907 880.166,-491.864 865.645,-480 752.082,-387.21 682.122,-463.739 539.645,-429 537.295,-428.427 534.906,-427.731 532.524,-426.951"/>
<ellipse fill="none" stroke="#95c7ad" cx="954.884" cy="-573.898" rx="4.00002" ry="4.00002"/>
<polygon fill="#95c7ad" stroke="#95c7ad" points="532.275,-426.859 524.464,-419.161 527.587,-425.119 522.899,-423.38 522.899,-423.38 522.899,-423.38 527.587,-425.119 521.334,-427.599 532.275,-426.859 532.275,-426.859"/>
<text text-anchor="middle" x="920.145" y="-494.3" font-family="Times,serif" font-size="14.00">sent_invites</text>
</g>
<!-- FormUser&#45;&gt;Friend -->
<g id="edge31" class="edge"><title>FormUser&#45;&gt;Friend</title>
<path fill="none" stroke="#80c651" d="M987.184,-565.993C989.386,-556.376 991.56,-545.248 992.645,-535 995.303,-509.916 993.583,-500.325 978.645,-480 913.702,-391.634 780.135,-357.298 711.474,-345.087"/>
<ellipse fill="none" stroke="#80c651" cx="986.199" cy="-570.105" rx="4.00001" ry="4.00001"/>
<polygon fill="#80c651" stroke="#80c651" points="711.289,-345.056 702.186,-338.941 706.36,-344.217 701.431,-343.377 701.431,-343.377 701.431,-343.377 706.36,-344.217 700.676,-347.814 711.289,-345.056 711.289,-345.056"/>
</g>
<!-- FormUser&#45;&gt;Friend -->
<g id="edge32" class="edge"><title>FormUser&#45;&gt;Friend</title>
<path fill="none" stroke="#d4e3fb" d="M994.695,-566.773C999.486,-557.203 1004.24,-545.902 1006.65,-535 1011.96,-510.938 1009.8,-502.45 999.645,-480 988.885,-456.221 912.102,-393.244 911.645,-393 847.798,-358.817 763.412,-346.247 712.736,-341.642"/>
<ellipse fill="none" stroke="#d4e3fb" cx="992.745" cy="-570.494" rx="4.00002" ry="4.00002"/>
<polygon fill="#d4e3fb" stroke="#d4e3fb" points="712.418,-341.616 702.832,-336.291 707.436,-341.196 702.454,-340.776 702.454,-340.776 702.454,-340.776 707.436,-341.196 702.076,-345.26 712.418,-341.616 712.418,-341.616"/>
<text text-anchor="middle" x="1036.65" y="-450.8" font-family="Times,serif" font-size="14.00">occassion_buddies</text>
</g>
<!-- Contact -->
<g id="node16" class="node"><title>Contact</title>
<polygon fill="none" stroke="black" points="1585.15,-610 1526.15,-610 1526.15,-574 1585.15,-574 1585.15,-610"/>
<text text-anchor="middle" x="1555.65" y="-588.3" font-family="Times,serif" font-size="14.00">Contact</text>
</g>
<!-- Invite&#45;&gt;Visitor -->
<g id="edge37" class="edge"><title>Invite&#45;&gt;Visitor</title>
<path fill="none" stroke="#aaf51a" d="M484.757,-386.762C456.363,-342.444 394.782,-246.328 366.452,-202.11"/>
<ellipse fill="none" stroke="#aaf51a" cx="487.08" cy="-390.388" rx="4.00002" ry="4.00002"/>
<ellipse fill="#aaf51a" stroke="#aaf51a" cx="364.199" cy="-198.594" rx="4.00002" ry="4.00002"/>
</g>
<!-- Invite&#45;&gt;Notification -->
<g id="edge38" class="edge"><title>Invite&#45;&gt;Notification</title>
<path fill="none" stroke="#32f39a" d="M502.449,-384.834C506.281,-350.509 513.395,-287.092 519.645,-233 523.615,-198.649 528.306,-159.087 531.372,-133.37"/>
<ellipse fill="none" stroke="#32f39a" cx="501.991" cy="-388.935" rx="4.00001" ry="4.00001"/>
<polygon fill="#32f39a" stroke="#32f39a" points="531.395,-133.181 537.048,-123.785 531.987,-128.217 532.58,-123.252 532.58,-123.252 532.58,-123.252 531.987,-128.217 528.111,-122.719 531.395,-133.181 531.395,-133.181"/>
</g>
<!-- Invite&#45;&gt;Friend -->
<g id="edge36" class="edge"><title>Invite&#45;&gt;Friend</title>
<path fill="none" stroke="#0f3fca" d="M531.949,-396.253C534.552,-395.151 537.142,-394.056 539.645,-393 571.383,-379.613 607.564,-364.479 633.514,-353.646"/>
<ellipse fill="none" stroke="#0f3fca" cx="527.858" cy="-397.988" rx="4.00001" ry="4.00001"/>
<polygon fill="#0f3fca" stroke="#0f3fca" points="633.7,-353.568 644.662,-353.87 638.315,-351.642 642.929,-349.717 642.929,-349.717 642.929,-349.717 638.315,-351.642 641.196,-345.564 633.7,-353.568 633.7,-353.568"/>
</g>
<!-- Comment&#45;&gt;Comment -->
<g id="edge39" class="edge"><title>Comment&#45;&gt;Comment</title>
<path fill="none" stroke="#ae3cf6" d="M309.916,-111.131C317.593,-110.181 322.791,-108.138 322.791,-105 322.791,-102.124 318.424,-100.167 311.782,-99.1289"/>
<ellipse fill="none" stroke="#ae3cf6" cx="305.503" cy="-111.439" rx="4" ry="4"/>
<polygon fill="#ae3cf6" stroke="#ae3cf6" points="311.479,-99.104 301.882,-93.7985 306.496,-98.6937 301.513,-98.2834 301.513,-98.2834 301.513,-98.2834 306.496,-98.6937 301.144,-102.768 311.479,-99.104 311.479,-99.104"/>
<text text-anchor="middle" x="341.291" y="-101.3" font-family="Times,serif" font-size="14.00">replies</text>
</g>
<!-- Friend&#45;&gt;Request -->
<g id="edge40" class="edge"><title>Friend&#45;&gt;Request</title>
<path fill="none" stroke="#4f73b4" d="M626.98,-334.294C604.615,-330.465 578.804,-321.703 564.645,-302 559.864,-295.346 559.009,-286.817 559.837,-278.695"/>
<ellipse fill="none" stroke="#4f73b4" cx="631.08" cy="-334.905" rx="4.00001" ry="4.00001"/>
<polygon fill="#4f73b4" stroke="#4f73b4" points="559.847,-278.638 566.047,-269.593 560.732,-273.717 561.618,-268.796 561.618,-268.796 561.618,-268.796 560.732,-273.717 557.189,-267.999 559.847,-278.638 559.847,-278.638"/>
<text text-anchor="middle" x="606.645" y="-290.8" font-family="Times,serif" font-size="14.00">friend_requests</text>
</g>
<!-- Friend&#45;&gt;Request -->
<g id="edge41" class="edge"><title>Friend&#45;&gt;Request</title>
<path fill="none" stroke="#ed89fb" d="M662.913,-312.06C659.874,-303.269 655.334,-293.875 648.645,-287 638.415,-276.486 624.505,-268.941 611.1,-263.614"/>
<ellipse fill="none" stroke="#ed89fb" cx="664.132" cy="-316.049" rx="4.00001" ry="4.00001"/>
<polygon fill="#ed89fb" stroke="#ed89fb" points="610.885,-263.536 603.026,-255.888 606.186,-261.827 601.487,-260.117 601.487,-260.117 601.487,-260.117 606.186,-261.827 599.949,-264.346 610.885,-263.536 610.885,-263.536"/>
<text text-anchor="middle" x="691.645" y="-290.8" font-family="Times,serif" font-size="14.00">sent_request</text>
</g>
</g>
</svg>
